# xmcd
#
# Track frame offsets:
#	225
#	8800
#	21604
#	32619
#	50615
#	62572
#	84731
#	96671
#	111953
#	123206
#	134059
#	144785
#	155864
#	164857
#	176590
#	190856
#	208378
#
# Disc length: 2942 seconds
#
# Revision: 2
# Processed by: cddbd v1.5.2PL0 Copyright (c) Steve Scherf et al.
# Submitted via: audiograbber 1.83.01
#
DISCID=050b7b11
DTITLE=Various Artist - Legends Of The 60's And 70's (0121) CD 3
DYEAR=1997
DGENRE=Oldies
TTITLE0=Gene Pitney - Wanna love my life away
TTITLE1=The Platters - If I had you
TTITLE2=Chuck Berry - Rock and roll music
TTITLE3=Jerry Lee Lewis - No headstone on my grave
TTITLE4=Fats Domino - Blue Monday
TTITLE5=Little Richards - Chains of love
TTITLE6=Willie Nelson - I hope so
TTITLE7=Percy Sledge - Walkin' in the sun
TTITLE8=Gene Vincent - Love is a bird
TTITLE9=Jerry Lee Lewis - Boogie woogie country man
TTITLE10=Chuck Berry - Sweet little rock 'n roller
TTITLE11=Fats Domino - Walking to New Orleans
TTITLE12=Jim Reeves - I'd like to be
TTITLE13=Gene Pitney - Maria Elena
TTITLE14=Jerry Lee Lewis - Big legged woman
TTITLE15=Percy Sledge - Blue water
TTITLE16=Frank Sinatra - Come fly with me
EXTD=
EXTT0=
EXTT1=
EXTT2=
EXTT3=
EXTT4=
EXTT5=
EXTT6=
EXTT7=
EXTT8=
EXTT9=
EXTT10=
EXTT11=
EXTT12=
EXTT13=
EXTT14=
EXTT15=
EXTT16=
PLAYORDER=
